<svg width="64" height="64" viewBox="0 0 64 64" xmlns="http://www.w3.org/2000/svg" role="img" aria-labelledby="title">
  <title id="title">Consultorio odontologico</title>
  <rect width="64" height="64" rx="14" fill="#D9F6EC"/>
  <path d="M20 13.8c3.4-1.4 7-.5 10 1.4 1.4.9 2.6.9 4 0 3-1.9 6.6-2.8 10-1.4 6.3 2.7 8.4 10.1 6.3 16.9L44.7 49c-1 3.4-4.1 5.8-7.6 5.8-.8 0-1.5-.5-1.7-1.3l-2.1-8.4c-.3-1.2-2.2-1.2-2.6 0l-2.1 8.4c-.2.8-.9 1.3-1.7 1.3-3.5 0-6.6-2.4-7.6-5.8l-5.6-18.3C11.6 23.9 13.7 16.5 20 13.8Z" fill="#0F766E"/>
</svg>
